<svg fill="none" height="56" viewBox="0 0 252 56" width="252" xmlns="http://www.w3.org/2000/svg"><rect fill="#dd3e3e" height="56" rx="8" width="252"/><path d="m35.8183 42.9071c-3.4901-2.2946-5.7443-6.0496-6.1252-10.2032l-.6358-6.9345c-.3812-4.157 1.1555-8.261 4.1749-11.1499l5.0217-4.80461c3.0208-2.89022 7.1967-4.24934 11.3441-3.69219l6.9038.92742c4.1431.55657 7.8072 2.96488 9.9557 6.54378l3.5887 5.978c2.1485 3.5789 2.5478 7.9392 1.085 11.8475l-2.4375 6.5124c-1.4643 3.9123-4.635 6.9456-8.6137 8.2403l-6.614 2.1522c-3.9768 1.2941-8.3278.7102-11.8208-1.5863z" fill="#fff"/><path d="m43.9002 18.7555c.5392 0 1.0281.1284 1.4667.3854.4458.2495.7945.6056 1.0461 1.068.2517.4552.3775.9874.3775 1.5967s-.1258 1.1451-.3775 1.6076c-.2516.4551-.6003.8112-1.0461 1.0681-.4386.2496-.9275.3744-1.4667.3744-.6811 0-1.7472.5505-1.7472 1.2301v.0574c0 .42-.3412.7606-.7621.7606h-.0791c-.4646 0-.8412-.3759-.8412-.8395v-6.4189c0-.4429.3597-.8018.8035-.8018h.6245c.0988 0 .1789.0799.1789.1785 0 .1682.2278.2558.3634.1558.382-.2816.8684-.4224 1.4593-.4224zm-.2912 4.6907c.4314 0 .7837-.1468 1.0569-.4404.2804-.301.4206-.7011.4206-1.2002 0-.4992-.1402-.8956-.4206-1.1892-.2732-.301-.6255-.4515-1.0569-.4515s-.7873.1505-1.0677.4515c-.2732.2936-.4098.69-.4098 1.1892 0 .4991.1366.8992.4098 1.2002.2804.2936.6363.4404 1.0677.4404z" fill="#dd3e3e"/><path d="m52.964 18.8436c.4646 0 .8412.3758.8412.8395v4.2827c0 .4428-.3597.8018-.8035.8018h-.6245c-.0988 0-.1789-.08-.1789-.1786 0-.1682-.2277-.2557-.3631-.1555-.3805.2815-.8635.4222-1.4488.4222-.5464 0-1.0425-.1248-1.4883-.3744-.4385-.2496-.7836-.6056-1.0353-1.0681-.2516-.4625-.3775-.9983-.3775-1.6076s.1259-1.1452.3775-1.6077c.2517-.4624.5968-.8185 1.0353-1.0681.4458-.2495.9419-.3743 1.4883-.3743.5589 0 1.0256.1358 1.4002.4075.1281.093.3362.0098.3362-.1483 0-.0945.0767-.1711.1714-.1711zm-2.2864 4.6026c.4242 0 .7765-.1468 1.0569-.4404.2804-.301.4206-.7011.4206-1.2002 0-.4992-.1402-.8956-.4206-1.1892-.2804-.301-.6327-.4515-1.0569-.4515-.4314 0-.7873.1505-1.0677.4515-.2804.2936-.4206.69-.4206 1.1892 0 .4991.1402.8992.4206 1.2002.2804.2936.6363.4404 1.0677.4404z" fill="#dd3e3e"/><path d="m57.3149 24.8557c-.4817 0-.9527-.0588-1.4128-.1762-.2198-.0596-.4182-.1259-.5953-.1989-.3045-.1255-.4051-.4828-.2689-.7822.1708-.3757.6416-.512 1.0307-.3725.0749.0268.1524.0523.2325.0763.3667.1028.7262.1542 1.0785.1542.7118 0 1.0677-.1799 1.0677-.5396 0-.1688-.0971-.29-.2912-.3634s-.4925-.1358-.8951-.1872c-.4746-.0734-.8664-.1578-1.1756-.2532-.3091-.0954-.5788-.2643-.8088-.5065-.2229-.2423-.3344-.5873-.3344-1.0351 0-.3744.1043-.7047.3128-.991.2157-.2936.5249-.5212.9275-.6827.4098-.1615.8915-.2422 1.4451-.2422.4099 0 .8161.0477 1.2187.1431.1674.036.3227.0781.4661.1263.3257.1095.4398.4831.2967.795-.1662.3623-.6088.4956-.9906.3791-.315-.0961-.6453-.1442-.9909-.1442-.3595 0-.6291.0514-.8088.1541-.1798.1028-.2696.235-.2696.3964 0 .1836.097.312.2912.3854.1941.0734.5032.1432.9274.2093.4746.0807.8628.1688 1.1648.2642.302.0881.5644.2533.7873.4955.2229.2423.3343.5799.3343 1.0131 0 .367-.1078.6937-.3235.98-.2157.2862-.5321.5101-.9491.6716-.4098.1542-.8987.2313-1.4667.2313z" fill="#dd3e3e"/><path d="m56.6443 34.7159c.0202.0178.0401.036.06.0543.0067.006.0133.012.0201.0183.1748.1684.2886.4092.3401.6457.0027.0121.0027.0121.0054.0246.0156.0773.0181.1526.0178.2314-.0001.013-.0001.0261-.0002.0396-.0012.1018-.0095.1979-.033.2969-.0015.0069-.0031.0138-.0047.0209-.0429.1856-.1268.363-.2454.5103-.0064.0079-.0064.0079-.0129.016-.1995.245-.5075.4027-.8162.4408-.1614.0132-.3237.0103-.4816-.0278-.0069-.0016-.0137-.0032-.0207-.0048-.3097-.0747-.5804-.2668-.7512-.5404-.1773-.2998-.2579-.6788-.177-1.0236.0057-.022.0119-.0438.0184-.0657.0021-.0073.0042-.0145.0063-.0221.0993-.3372.3293-.613.6298-.7822.4699-.25 1.0428-.1785 1.445.1678zm-1.6846.6124c-.0187.0141-.0334.0348-.0318.0581.0012.0176.0102.0352.0224.0481.0079.0082.0157.014.026.0181.0163.0066.0343.0064.0519.0061.002 0 .004-.0001.006-.0001.0174-.0002.0174-.0002.0352-.0004.0121-.0004.0241-.0007.0366-.0011.0122-.0001.0244-.0003.037-.0005.0215-.0004.0429-.0008.0644-.0013.0143-.0004.026.0111.0259.0254-.0006.0811-.001.1623-.0013.2435-.0002.0417-.0004.0834-.0007.1252-.0004.0402-.0005.0805-.0006.1208-.0001.0153-.0002.0307-.0003.0461-.0003.0215-.0003.043-.0003.0645 0 .0123-.0001.0245-.0002.0372.002.017.0046.029.0096.0398.0114.0242.0352.0432.0619.0413.0185-.0013.038-.0088.0514-.0216.002-.0018.0037-.0037.0053-.0057.0149-.0191.0176-.0449.0181-.0691.0001-.0074-.0001-.0161-.0003-.0311 0-.0067 0-.0134 0-.0203 0-.022-.0002-.044-.0003-.066-.0001-.0153-.0001-.0306-.0001-.0458-.0001-.0402-.0003-.0804-.0005-.1206-.0002-.041-.0003-.082-.0004-.123-.0002-.0727-.0005-.1454-.0009-.2181 0-.0127.0105-.0228.0232-.0224.0347.0011.0695.0017.1043.0024.012.0004.0241.0008.0366.0013.0174.0002.0174.0002.0351.0005.0161.0004.0161.0004.0324.0008.0304-.0035.0304-.0035.0522-.0297.0052-.0072.0089-.0125.0116-.017.0148-.0247.0047-.0597-.0164-.0793-.0221-.0204-.054-.0273-.0841-.0272-.0047 0-.0104.0001-.0176.0002-.0125-.0001-.0249-.0002-.0378-.0004-.0135.0001-.027.0001-.0405.0001-.0139 0-.0279-.0001-.0418-.0001-.0292-.0001-.0583-.0001-.0875 0-.0373.0001-.0746-.0001-.1119-.0004-.0288-.0002-.0576-.0002-.0863-.0001-.0138 0-.0276-.0001-.0413-.0002-.0193-.0001-.0385 0-.0578.0001-.0045 0-.0078 0-.0105 0-.015 0-.0302.0007-.0445.0053-.0121.004-.0219.0093-.0314.0166zm.8857-.0039c-.0222.0151-.0375.041-.0408.0677-.0029.0234-.0021.0473-.0022.0716-.0001.007-.0001.014-.0001.0212-.0001.0231-.0001.0462-.0001.0692-.0001.0161-.0001.0322-.0001.0483-.0001.0337-.0001.0674-.0001.1011 0 .0431-.0002.0862-.0003.1293-.0001.0332-.0002.0664-.0002.0996 0 .0159 0 .0318-.0001.0477-.0001.0223-.0001.0445 0 .0668v.0383c.0018.0252.0053.0442.0135.0648.0053.0133.0154.027.0267.0357.0196.0152.0461.0133.0678.0015.0026-.0014.005-.0029.0075-.0045.0196-.0129.0317-.0347.0352-.0579.0029-.0188.0035-.0376.0039-.0577.0002-.0103.0004-.0205.0006-.031.0001-.011.0003-.0219.0005-.0332.0003-.0169.0003-.0169.0006-.0342.0007-.036.0013-.072.0018-.108.0005-.0245.0009-.0489.0014-.0733.0005-.0315.0011-.063.0016-.0945.0005-.0281.0363-.04.0535-.0176.0048.0062.0097.0125.0147.019.0324.0421.064.0847.0952.1278.0103.0143.0203.0303.0354.0396.0221.0137.052.0083.0755-.0031.0143-.007.024-.0179.0398-.0375.0075-.0092.015-.0184.0227-.0278.0083-.0108.0166-.0215.0248-.0323.01-.0127.0199-.0255.0299-.0382.0196-.0252.039-.0506.0583-.0761.0092-.012.0145-.019.0183-.0238.0047-.0058.0137-.0023.0138.0052.0006.0696.0014.1392.0024.2088.0003.026.0006.052.0008.0779.0004.0374.0009.0747.0015.112 0 .0116.0001.0233.0002.0353.0002.0108.0004.0216.0006.0328 0 .0029 0 .0058.0001.0087.0001.0134.0006.027.0046.0399.0015.0047.0032.009.0051.0131.012.0247.036.0448.0634.0424.0177-.0015.0363-.0087.0495-.0206.0024-.0021.0044-.0043.0063-.0066.0148-.019.0172-.0449.018-.069.0003-.0091.0002-.0189 0-.0381 0-.0074 0-.0148.0001-.0225 0-.0244 0-.0489-.0001-.0733 0-.017.0001-.0341.0001-.0511 0-.0356 0-.0713-.0001-.107-.0001-.0456-.0001-.0913 0-.137.0001-.0352.0001-.0703 0-.1054 0-.0169 0-.0337.0001-.0506 0-.0235 0-.0471-.0001-.0706-.0001-.0134-.0001-.0268-.0001-.0406-.001-.0137-.0022-.0247-.0046-.0349-.0066-.0282-.0272-.054-.056-.058-.0165-.0023-.0346.0016-.0492.0094-.0151.008-.0245.0186-.0391.0364-.0068.0082-.0137.0165-.0207.0251-.0356.045-.0706.0904-.1054.1361-.0021.0027-.0041.0053-.0062.008-.0585.0763-.1698.0808-.2297.0057-.0062-.0077-.0124-.0154-.0188-.0233-.0395-.0494-.0786-.0991-.1167-.1497-.0053-.0061-.0105-.0118-.0158-.0171-.0241-.0242-.0609-.0391-.0892-.0199z" fill="#dd3e3e"/><path d="m43.9002 29.4914c.5392 0 1.0281.1285 1.4667.3854.4458.2496.7945.6056 1.0461 1.0681.2517.4551.3775.9873.3775 1.5966s-.1258 1.1452-.3775 1.6076c-.2516.4552-.6003.8112-1.0461 1.0681-.4386.2496-.9275.3744-1.4667.3744-.5909 0-1.0773-.1408-1.4593-.4225-.1356-.1-.3634-.0124-.3634.1559 0 .0986-.0801.1785-.1789.1785h-.6245c-.4438 0-.8035-.359-.8035-.8018v-6.529c0-.4636.3766-.8395.8412-.8395h.0488c.4376 0 .7924.3541.7924.7909v.1371c0 .6797 1.0661 1.2302 1.7472 1.2302zm-.2912 4.6908c.4314 0 .7837-.1468 1.0569-.4405.2804-.301.4206-.701.4206-1.2002s-.1402-.8956-.4206-1.1892c-.2732-.301-.6255-.4515-1.0569-.4515s-.7873.1505-1.0677.4515c-.2732.2936-.4098.69-.4098 1.1892s.1366.8992.4098 1.2002c.2804.2937.6363.4405 1.0677.4405z" fill="#dd3e3e"/><path d="m52.9209 29.5795c.4645 0 .8412.3758.8412.8395v4.0935c0 1.0864-.2697 1.8939-.8089 2.4225-.5392.5285-1.3229.7928-2.3511.7928-.5464 0-1.0641-.0698-1.553-.2092-.2718-.0787-.5195-.1773-.7433-.2957-.2908-.154-.3614-.5201-.2047-.8091.2054-.3788.7155-.4732 1.1165-.314.0573.0228.1162.0442.1766.0644.3523.1174.7082.1762 1.0677.1762.5608 0 .9707-.1322 1.2295-.3964.2588-.2643.3882-.6681.3882-1.2113 0-.0724-.0898-.1099-.145-.0629-.1826.1554-.3895.2791-.6207.3712-.2948.1175-.6111.1762-.949.1762-.7622 0-1.3661-.2202-1.8119-.6606-.4457-.4478-.6686-1.1159-.6686-2.0041v-2.1335c0-.4637.3766-.8395.8412-.8395s.8412.3758.8412.8395v1.8803c0 .9616.3918 1.4424 1.1755 1.4424.4027 0 .7262-.1321.9707-.3964.2444-.2716.3666-.6717.3666-1.2002v-1.7261c0-.4637.3767-.8395.8413-.8395z" fill="#dd3e3e"/><g fill="#fff"><path d="m88.8666 33.1961c-1.0267 0-1.9507-.2146-2.772-.644-.812-.4386-1.4514-1.0453-1.918-1.82-.4667-.7746-.7-1.652-.7-2.632s.2333-1.8573.7-2.632c.4666-.7746 1.106-1.3766 1.918-1.806.8213-.4386 1.7453-.658 2.772-.658.896 0 1.7033.1587 2.422.476.4205.1857.7996.4194 1.137.701.4054.3383.35.947-.0415 1.3012l-.2933.2654c-.4221.3818-1.0673.3117-1.5445.0014-.4603-.2993-.9735-.449-1.5397-.449-.532 0-1.008.1167-1.428.35-.4107.2334-.7327.5647-.966.994-.224.42-.336.9054-.336 1.456 0 .5507.112 1.0407.336 1.47.2333.42.5553.7467.966.98.42.2334.896.35 1.428.35.5662 0 1.0794-.1496 1.5397-.449.4772-.3103 1.1224-.3804 1.5445.0015l.2933.2654c.3915.3542.4469.9629.0415 1.3012-.3374.2816-.7165.5152-1.137.7009-.7187.3174-1.526.476-2.422.476z"/><path d="m97.7661 33.1261c-.812 0-1.5447-.168-2.198-.504-.6534-.336-1.1667-.8026-1.54-1.4-.364-.5973-.546-1.274-.546-2.03 0-.7466.182-1.4186.546-2.016.3733-.5973.882-1.0593 1.526-1.386.6533-.336 1.3906-.504 2.212-.504.8213 0 1.5586.168 2.212.504.6529.3267 1.1619.7887 1.5259 1.386.364.588.546 1.26.546 2.016s-.182 1.4327-.546 2.03c-.364.5974-.873 1.064-1.5259 1.4-.6534.336-1.3907.504-2.212.504zm0-2.114c.4666 0 .8493-.1586 1.148-.476.2986-.3266.448-.7746.448-1.344 0-.56-.1494-.9986-.448-1.316-.2987-.3173-.6814-.476-1.148-.476-.4667 0-.8494.1587-1.148.476-.2987.3174-.448.756-.448 1.316 0 .5694.1493 1.0174.448 1.344.2986.3174.6813.476 1.148.476z"/><path d="m108.224 25.2861c.943 0 1.699.28 2.268.84.579.56.868 1.4047.868 2.534v3.34c0 .5523-.447 1-1 1h-.66c-.552 0-1-.4477-1-1v-2.906c0-1.036-.415-1.554-1.246-1.554-.457 0-.826.1494-1.106.448-.27.2987-.406.7467-.406 1.344v2.668c0 .5523-.447 1-1 1h-.66c-.552 0-1-.4477-1-1v-5.588c0-.5522.448-1 1-1h1.296c.132 0 .238.1067.238.2382 0 .214.272.3302.449.2096.189-.129.394-.2362.615-.3218.411-.168.859-.252 1.344-.252z"/><path d="m115.62 25.5241c0 .0928.076.168.168.168h.735c.499 0 .903.4043.903.903v.217c0 .4794-.388.868-.868.868-.479 0-.868.3887-.868.868v3.452c0 .5523-.447 1-1 1h-.66c-.552 0-1-.4477-1-1v-6.504c0-.924.276-1.6566.826-2.198.56-.5413 1.34-.812 2.338-.812.336 0 .663.0327.98.098.017.0035.034.007.05.0107.452.0999.626.5926.473 1.0298l-.119.3384c-.145.4116-.639.5671-1.076.5671-.28 0-.499.084-.658.252-.149.168-.224.4154-.224.742zm3.906.888c0-.5522.448-1 1-1h.66c.553 0 1 .4478 1 1v5.588c0 .5523-.447 1-1 1h-.66c-.552 0-1-.4477-1-1zm1.33-1.84c-.485 0-.877-.1353-1.176-.406-.298-.2706-.448-.6066-.448-1.008 0-.4013.15-.7373.448-1.008.299-.2706.691-.406 1.176-.406.486 0 .878.1307 1.176.392.299.252.448.5787.448.98 0 .42-.149.77-.448 1.05-.298.2707-.69.406-1.176.406z"/><path d="m126.447 25.6457c0 .2219.306.339.487.2097.169-.1215.357-.2226.563-.3033.161-.0648.329-.1179.506-.159.538-.1252.992.3408.992.893v.7903c0 .3216-.28.5617-.602.5617-.569 0-1.017.154-1.344.462-.317.308-.476.7794-.476 1.414v2.486c0 .5523-.448 1-1 1h-.66c-.552 0-1-.4477-1-1v-5.588c0-.5522.448-1 1-1h1.301c.129 0 .233.1046.233.2336z"/><path d="m139.977 25.2861c.933 0 1.675.28 2.226.84.56.56.84 1.4047.84 2.534v3.34c0 .5523-.448 1-1 1h-.66c-.552 0-1-.4477-1-1v-2.906c0-.532-.103-.924-.308-1.176-.196-.252-.476-.378-.84-.378-.401 0-.723.14-.966.42s-.364.7047-.364 1.274v2.766c0 .5523-.448 1-1 1h-.66c-.552 0-1-.4477-1-1v-2.906c0-1.036-.383-1.554-1.148-1.554-.411 0-.737.14-.98.42s-.364.7047-.364 1.274v2.766c0 .5523-.448 1-1 1h-.66c-.552 0-1-.4477-1-1v-5.588c0-.5522.448-1 1-1h1.311c.123 0 .223.0997.223.2225 0 .2034.263.3115.429.1937.174-.1237.362-.2251.565-.3042.392-.1586.817-.238 1.274-.238.532 0 1.008.098 1.428.294.611.2855 1.48.3352 2.089.045.022-.0105.044-.0209.067-.031.457-.2053.957-.308 1.498-.308z"/><path d="m160.172 25.4121c.552 0 1 .4478 1 1v3.186c0 1.1294-.327 2.002-.98 2.618-.644.6067-1.554.91-2.73.91-.609 0-1.137-.0984-1.583-.2953-.556-.2452-1.285-.239-1.841.0052-.441.1934-.965.2901-1.574.2901-1.185 0-2.1-.3033-2.744-.91-.635-.616-.952-1.4886-.952-2.618v-3.186c0-.5522.448-1 1-1h.66c.552 0 1 .4478 1 1v3.004c0 .532.089.924.266 1.176.177.2427.453.364.826.364s.653-.126.84-.378.28-.6393.28-1.162v-3.004c0-.5522.448-1 1-1h.66c.552 0 1 .4478 1 1v3.004c0 .5227.093.91.28 1.162s.467.378.84.378.649-.1213.826-.364c.177-.252.266-.644.266-1.176v-3.004c0-.5522.448-1 1-1z"/><path d="m162.837 26.4121c0-.5522.448-1 1-1h.66c.552 0 1 .4478 1 1v5.588c0 .5523-.448 1-1 1h-.66c-.552 0-1-.4477-1-1zm1.33-1.84c-.485 0-.877-.1353-1.176-.406-.299-.2706-.448-.6066-.448-1.008 0-.4013.149-.7373.448-1.008.299-.2706.691-.406 1.176-.406s.877.1307 1.176.392c.299.252.448.5787.448.98 0 .42-.149.77-.448 1.05-.299.2707-.691.406-1.176.406z"/><path d="m171.86 31.9809c.147.4156-.016.8865-.442 1.0005-.043.0115-.087.0224-.132.0327-.318.0747-.658.112-1.022.112-.99 0-1.75-.2426-2.282-.728-.523-.4853-.784-1.2086-.784-2.17v-5.51c0-.5522.447-1 1-1h.673c.545 0 .987.4419.987.987v.126c0 .4756.385.861.861.861.475 0 .861.3855.861.861v.266c0 .4756-.386.861-.861.861-.476 0-.861.3855-.861.861v1.659c0 .28.07.4947.21.644.14.1494.331.224.574.224.434 0 .953.1627 1.098.5722z"/><path d="m178.074 25.2861c.943 0 1.699.28 2.268.84.579.56.868 1.4047.868 2.534v3.34c0 .5523-.448 1-1 1h-.66c-.552 0-1-.4477-1-1v-2.906c0-1.036-.415-1.554-1.246-1.554-.457 0-.826.1494-1.106.448-.271.2987-.406.7467-.406 1.344v2.668c0 .5523-.448 1-1 1h-.66c-.552 0-1-.4477-1-1v-8.388c0-.5522.448-1 1-1h.66c.552 0 1 .4478 1 1v1.2983c0 .4562.592.7392 1.022.5857.392-.14.812-.21 1.26-.21z"/><path d="m191.728 25.2861c.691 0 1.316.1634 1.876.49.57.3174 1.018.7747 1.344 1.372.336.588.504 1.274.504 2.058s-.168 1.4747-.504 2.072c-.326.588-.774 1.0454-1.344 1.372-.56.3174-1.185.476-1.876.476-.851 0-2.114.6747-2.114 1.5254v.0811c0 .5432-.44.9835-.983.9835h-.677c-.552 0-1-.4477-1-1v-8.304c0-.5522.448-1 1-1h1.332c.112 0 .202.0905.202.2021 0 .1885.252.288.405.1777.467-.3372 1.079-.5058 1.835-.5058zm-.56 5.726c.467 0 .85-.1586 1.148-.476.299-.3266.448-.77.448-1.33s-.149-.9986-.448-1.316c-.298-.3266-.681-.49-1.148-.49-.466 0-.849.1634-1.148.49-.298.3174-.448.756-.448 1.316s.15 1.0034.448 1.33c.299.3174.682.476 1.148.476z"/><path d="m203.711 25.4121c.552 0 1 .4478 1 1v5.588c0 .5523-.448 1-1 1h-1.332c-.112 0-.202-.0904-.202-.202 0-.1885-.252-.2881-.405-.1778-.467.3372-1.079.5058-1.835.5058-.691 0-1.321-.1586-1.89-.476-.56-.3266-1.008-.7886-1.344-1.386-.327-.5973-.49-1.288-.49-2.072s.163-1.47.49-2.058c.336-.5973.784-1.0546 1.344-1.372.569-.3173 1.199-.476 1.89-.476.703 0 1.289.1613 1.757.4838.141.097.357.0042.357-.1668 0-.1055.085-.191.191-.191zm-3.214 5.6c.466 0 .849-.1586 1.148-.476.298-.3266.448-.7746.448-1.344 0-.56-.15-.9986-.448-1.316-.299-.3173-.682-.476-1.148-.476-.467 0-.85.1587-1.148.476-.299.3174-.448.756-.448 1.316 0 .5694.149 1.0174.448 1.344.298.3174.681.476 1.148.476z"/><path d="m209.181 33.1261c-.635 0-1.26-.07-1.876-.21-.26-.0631-.499-.1337-.716-.2118-.46-.1655-.623-.6939-.426-1.1414.24-.5491.919-.7584 1.491-.5802.065.0199.13.0391.197.0574.476.1214.947.182 1.414.182.429 0 .733-.042.91-.126.187-.0933.28-.224.28-.392s-.112-.2846-.336-.35c-.215-.0746-.56-.1446-1.036-.21-.607-.0746-1.125-.1726-1.554-.294-.42-.1213-.784-.3453-1.092-.672-.308-.3266-.462-.784-.462-1.372 0-.4853.145-.9146.434-1.288.289-.3826.709-.6813 1.26-.896.56-.224 1.227-.336 2.002-.336.551 0 1.097.056 1.638.168.189.0391.366.0838.534.1341.485.1465.668.6958.462 1.1599-.234.5305-.874.7327-1.434.5817-.38-.1024-.775-.1537-1.186-.1537-.42 0-.728.0514-.924.154-.196.0934-.294.2194-.294.378 0 .1774.107.3034.322.378.215.0654.569.1354 1.064.21.625.0934 1.143.2007 1.554.322.411.1214.765.3454 1.064.672.308.3174.462.7654.462 1.344 0 .476-.145.9054-.434 1.288-.289.3734-.719.6674-1.288.882-.56.2147-1.237.322-2.03.322z"/><path d="m218.853 25.2861c.691 0 1.316.1587 1.876.476.57.3174 1.017.7747 1.344 1.372.336.588.504 1.274.504 2.058s-.168 1.4747-.504 2.072c-.327.5974-.774 1.0594-1.344 1.386-.56.3174-1.185.476-1.876.476-.756 0-1.368-.1686-1.835-.5058-.153-.1103-.405-.0107-.405.1778 0 .1116-.09.202-.202.202h-1.332c-.552 0-1-.4477-1-1v-8.388c0-.5522.448-1 1-1h.66c.552 0 1 .4478 1 1v.1399c0 .8487 1.265 1.5341 2.114 1.5341zm-.56 5.726c.467 0 .85-.1586 1.148-.476.299-.3266.448-.7746.448-1.344 0-.56-.149-.9986-.448-1.316-.298-.3173-.681-.476-1.148-.476-.466 0-.849.1587-1.148.476-.298.3174-.448.756-.448 1.316 0 .5694.15 1.0174.448 1.344.299.3174.682.476 1.148.476z"/><path d="m230.794 25.4121c.552 0 1 .4478 1 1v5.202c0 1.4094-.378 2.464-1.134 3.164-.747.7094-1.825 1.064-3.234 1.064-.738 0-1.428-.084-2.072-.252-.32-.0845-.615-.1891-.887-.3137-.447-.2046-.57-.7503-.344-1.1862.293-.5658 1.057-.7193 1.664-.525.01.003.019.006.029.0089.457.1494.91.224 1.358.224.672 0 1.166-.154 1.484-.462.317-.308.476-.7653.476-1.372 0-.0633-.077-.0966-.125-.0555-.547.4664-1.215.6995-2.003.6995-.98 0-1.764-.2893-2.352-.868-.579-.5786-.868-1.4466-.868-2.604v-2.724c0-.5522.447-1 1-1h.66c.552 0 1 .4478 1 1v2.29c0 .5787.107.9987.322 1.26.214.2614.527.392.938.392.42 0 .76-.1493 1.022-.448.27-.2986.406-.7466.406-1.344v-2.15c0-.5522.447-1 1-1z"/></g></svg>