<svg width="512" height="514" viewBox="0 0 512 514" fill="none" xmlns="http://www.w3.org/2000/svg">
<path d="M81.1855 440.347C39.6282 412.97 12.7878 368.169 8.25285 318.611L0.681722 235.874C-3.85696 186.275 14.4404 137.309 50.3929 102.841L110.186 45.5164C146.155 11.0325 195.877 -5.18347 245.26 1.46398L327.463 12.5292C376.795 19.1698 420.423 47.9044 446.005 90.6051L488.736 161.93C514.318 204.63 519.073 256.654 501.655 303.284L472.632 380.985C455.197 427.664 417.443 463.855 370.069 479.302L291.316 504.981C243.964 520.421 192.157 513.455 150.566 486.054L81.1855 440.347Z" fill="#DD3E3E"/>
<path d="M177.416 152.188C183.837 152.188 189.658 153.721 194.88 156.787C200.188 159.765 204.34 164.012 207.336 169.53C210.333 174.961 211.831 181.31 211.831 188.58C211.831 195.85 210.333 202.243 207.336 207.761C204.34 213.191 200.188 217.439 194.88 220.505C189.658 223.483 183.837 224.972 177.416 224.972C169.307 224.972 156.613 231.54 156.613 239.649V240.333C156.613 245.345 152.55 249.408 147.538 249.408H146.597C141.065 249.408 136.58 244.923 136.58 239.391V162.806C136.58 157.523 140.864 153.24 146.147 153.24H153.584C154.76 153.24 155.714 154.193 155.714 155.37C155.714 157.377 158.426 158.422 160.041 157.229C164.589 153.869 170.381 152.188 177.416 152.188ZM173.949 208.155C179.085 208.155 183.28 206.404 186.533 202.9C189.872 199.309 191.541 194.536 191.541 188.58C191.541 182.624 189.872 177.895 186.533 174.391C183.28 170.8 179.085 169.005 173.949 169.005C168.812 169.005 164.575 170.8 161.236 174.391C157.983 177.895 156.356 182.624 156.356 188.58C156.356 194.536 157.983 199.309 161.236 202.9C164.575 206.404 168.812 208.155 173.949 208.155Z" fill="white"/>
<path d="M285.339 153.24C290.871 153.24 295.355 157.724 295.355 163.256V214.354C295.355 219.637 291.072 223.921 285.788 223.921H278.352C277.175 223.921 276.221 222.967 276.221 221.79C276.221 219.783 273.511 218.74 271.898 219.935C267.367 223.293 261.617 224.972 254.648 224.972C248.142 224.972 242.234 223.483 236.927 220.505C231.705 217.527 227.595 213.279 224.599 207.761C221.603 202.243 220.105 195.85 220.105 188.58C220.105 181.31 221.603 174.917 224.599 169.399C227.595 163.881 231.705 159.633 236.927 156.655C242.234 153.677 248.142 152.188 254.648 152.188C261.302 152.188 266.859 153.809 271.319 157.051C272.845 158.16 275.322 157.168 275.322 155.281C275.322 154.154 276.236 153.24 277.364 153.24H285.339ZM258.115 208.155C263.166 208.155 267.361 206.404 270.7 202.9C274.038 199.309 275.708 194.536 275.708 188.58C275.708 182.624 274.038 177.895 270.7 174.391C267.361 170.8 263.166 169.005 258.115 169.005C252.978 169.005 248.741 170.8 245.402 174.391C242.063 177.895 240.394 182.624 240.394 188.58C240.394 194.536 242.063 199.309 245.402 202.9C248.741 206.404 252.978 208.155 258.115 208.155Z" fill="white"/>
<path d="M337.145 224.972C331.409 224.972 325.801 224.271 320.322 222.869C317.706 222.158 315.343 221.367 313.234 220.497C309.609 219 308.411 214.736 310.032 211.164C312.067 206.681 317.672 205.056 322.305 206.719C323.198 207.039 324.12 207.343 325.074 207.63C329.44 208.856 333.72 209.469 337.915 209.469C346.39 209.469 350.628 207.323 350.628 203.032C350.628 201.017 349.472 199.572 347.161 198.696C344.849 197.82 341.297 197.076 336.503 196.463C330.852 195.587 326.187 194.58 322.505 193.441C318.824 192.302 315.614 190.288 312.874 187.398C310.221 184.507 308.894 180.391 308.894 175.048C308.894 170.581 310.135 166.64 312.618 163.224C315.186 159.721 318.867 157.006 323.661 155.079C328.541 153.152 334.277 152.188 340.869 152.188C345.748 152.188 350.585 152.758 355.379 153.896C357.372 154.326 359.222 154.828 360.929 155.403C364.807 156.71 366.166 161.167 364.462 164.888C362.483 169.211 357.213 170.802 352.666 169.412C348.916 168.265 344.983 167.691 340.869 167.691C336.588 167.691 333.378 168.304 331.238 169.53C329.097 170.756 328.027 172.333 328.027 174.26C328.027 176.45 329.183 177.982 331.494 178.858C333.806 179.734 337.487 180.566 342.538 181.354C348.188 182.318 352.811 183.369 356.407 184.507C360.002 185.558 363.127 187.529 365.781 190.419C368.435 193.31 369.762 197.338 369.762 202.506C369.762 206.885 368.478 210.783 365.909 214.199C363.341 217.614 359.574 220.286 354.609 222.213C349.729 224.052 343.908 224.972 337.145 224.972Z" fill="white"/>
<path d="M329.16 342.616C329.401 342.829 329.638 343.046 329.875 343.264C329.954 343.336 330.033 343.408 330.114 343.482C332.195 345.492 333.55 348.364 334.164 351.186C334.195 351.331 334.195 351.331 334.228 351.48C334.413 352.402 334.443 353.301 334.439 354.241C334.438 354.396 334.438 354.552 334.437 354.713C334.423 355.928 334.324 357.075 334.044 358.255C334.026 358.338 334.007 358.42 333.988 358.506C333.478 360.719 332.479 362.836 331.066 364.593C330.99 364.688 330.99 364.688 330.913 364.785C328.537 367.708 324.87 369.589 321.195 370.044C319.273 370.201 317.339 370.167 315.459 369.712C315.378 369.693 315.297 369.674 315.213 369.655C311.525 368.764 308.302 366.472 306.269 363.207C304.157 359.63 303.198 355.108 304.162 350.995C304.23 350.732 304.303 350.471 304.38 350.211C304.405 350.124 304.43 350.037 304.455 349.947C305.637 345.923 308.377 342.633 311.954 340.614C317.55 337.631 324.371 338.484 329.16 342.616ZM309.101 349.923C308.879 350.091 308.703 350.338 308.722 350.616C308.737 350.826 308.845 351.037 308.99 351.19C309.083 351.288 309.176 351.357 309.3 351.406C309.493 351.484 309.708 351.483 309.917 351.479C309.941 351.478 309.965 351.478 309.989 351.477C310.196 351.475 310.196 351.475 310.407 351.473C310.551 351.468 310.695 351.464 310.843 351.46C310.989 351.458 311.134 351.456 311.284 351.453C311.54 351.449 311.795 351.444 312.051 351.438C312.221 351.434 312.361 351.571 312.36 351.741C312.352 352.709 312.347 353.678 312.343 354.646C312.342 355.144 312.339 355.642 312.335 356.14C312.331 356.62 312.329 357.101 312.328 357.581C312.327 357.765 312.326 357.948 312.324 358.131C312.322 358.388 312.321 358.645 312.321 358.902C312.321 359.048 312.32 359.194 312.319 359.344C312.342 359.548 312.374 359.691 312.434 359.82C312.569 360.108 312.852 360.335 313.17 360.312C313.39 360.297 313.622 360.208 313.783 360.055C313.806 360.033 313.826 360.011 313.845 359.987C314.022 359.759 314.055 359.451 314.06 359.163C314.062 359.074 314.06 358.971 314.057 358.791C314.057 358.711 314.057 358.631 314.057 358.549C314.057 358.287 314.055 358.024 314.053 357.762C314.053 357.58 314.052 357.397 314.052 357.215C314.051 356.735 314.049 356.256 314.046 355.777C314.044 355.287 314.043 354.798 314.042 354.309C314.039 353.441 314.036 352.574 314.031 351.707C314.031 351.556 314.156 351.434 314.307 351.439C314.721 351.452 315.135 351.46 315.549 351.468C315.693 351.473 315.836 351.478 315.984 351.483C316.192 351.486 316.192 351.486 316.403 351.489C316.594 351.494 316.594 351.494 316.789 351.499C317.151 351.458 317.151 351.458 317.41 351.145C317.472 351.059 317.517 350.996 317.549 350.942C317.724 350.648 317.604 350.229 317.353 349.996C317.09 349.752 316.71 349.67 316.351 349.671C316.295 349.672 316.228 349.673 316.142 349.674C315.994 349.673 315.845 349.671 315.693 349.669C315.532 349.67 315.371 349.67 315.21 349.67C315.044 349.67 314.878 349.669 314.712 349.669C314.365 349.667 314.018 349.668 313.67 349.669C313.226 349.67 312.782 349.668 312.337 349.664C311.995 349.662 311.652 349.662 311.31 349.663C311.146 349.663 310.982 349.662 310.818 349.661C310.589 349.659 310.36 349.66 310.131 349.662C310.077 349.662 310.037 349.662 310.005 349.662C309.826 349.662 309.645 349.67 309.475 349.725C309.332 349.773 309.215 349.836 309.101 349.923ZM319.648 349.876C319.383 350.057 319.201 350.366 319.162 350.684C319.127 350.964 319.136 351.248 319.135 351.538C319.135 351.622 319.135 351.705 319.134 351.791C319.133 352.067 319.133 352.342 319.133 352.618C319.132 352.809 319.132 353.001 319.131 353.193C319.131 353.595 319.131 353.997 319.131 354.399C319.131 354.913 319.129 355.428 319.127 355.942C319.126 356.339 319.125 356.735 319.125 357.131C319.125 357.321 319.125 357.51 319.124 357.7C319.123 357.965 319.123 358.231 319.124 358.496C319.124 358.647 319.123 358.798 319.123 358.954C319.145 359.255 319.187 359.481 319.285 359.727C319.347 359.886 319.468 360.049 319.602 360.153C319.835 360.334 320.151 360.312 320.409 360.171C320.44 360.154 320.47 360.136 320.499 360.117C320.732 359.963 320.876 359.703 320.918 359.426C320.952 359.202 320.96 358.977 320.964 358.737C320.967 358.615 320.969 358.493 320.971 358.368C320.973 358.237 320.975 358.106 320.977 357.971C320.981 357.77 320.981 357.77 320.985 357.564C320.993 357.134 321 356.704 321.007 356.275C321.012 355.983 321.017 355.692 321.022 355.4C321.029 355.025 321.036 354.649 321.042 354.274C321.048 353.937 321.474 353.796 321.679 354.063C321.736 354.137 321.794 354.212 321.854 354.289C322.24 354.792 322.616 355.301 322.987 355.815C323.11 355.986 323.23 356.176 323.408 356.287C323.672 356.45 324.029 356.386 324.307 356.25C324.478 356.167 324.594 356.037 324.782 355.802C324.871 355.693 324.96 355.583 325.052 355.47C325.151 355.343 325.249 355.214 325.348 355.086C325.466 354.934 325.585 354.782 325.703 354.63C325.936 354.329 326.168 354.026 326.397 353.722C326.507 353.579 326.57 353.495 326.616 353.438C326.671 353.368 326.779 353.411 326.779 353.5C326.787 354.33 326.797 355.161 326.808 355.991C326.812 356.301 326.816 356.611 326.818 356.921C326.822 357.366 326.829 357.812 326.835 358.257C326.836 358.396 326.837 358.535 326.838 358.678C326.84 358.807 326.842 358.936 326.845 359.069C326.845 359.104 326.846 359.138 326.846 359.173C326.848 359.333 326.854 359.496 326.901 359.649C326.919 359.705 326.939 359.756 326.963 359.805C327.105 360.1 327.39 360.34 327.717 360.311C327.927 360.293 328.15 360.208 328.307 360.066C328.335 360.041 328.359 360.015 328.381 359.987C328.558 359.76 328.586 359.451 328.596 359.164C328.599 359.056 328.598 358.938 328.595 358.709C328.595 358.621 328.596 358.532 328.596 358.441C328.597 358.149 328.597 357.858 328.596 357.566C328.596 357.363 328.596 357.16 328.597 356.956C328.597 356.531 328.596 356.106 328.595 355.68C328.594 355.135 328.595 354.59 328.596 354.045C328.597 353.626 328.597 353.206 328.596 352.787C328.596 352.586 328.596 352.385 328.597 352.184C328.597 351.903 328.596 351.622 328.595 351.341C328.595 351.182 328.595 351.022 328.594 350.857C328.582 350.694 328.568 350.562 328.54 350.441C328.461 350.104 328.215 349.796 327.873 349.749C327.677 349.722 327.461 349.768 327.287 349.861C327.107 349.957 326.996 350.083 326.822 350.295C326.74 350.393 326.659 350.492 326.575 350.594C326.151 351.132 325.734 351.673 325.32 352.218C325.295 352.25 325.271 352.282 325.246 352.314C324.549 353.224 323.225 353.278 322.511 352.382C322.437 352.29 322.364 352.199 322.288 352.104C321.816 351.515 321.352 350.922 320.898 350.318C320.835 350.245 320.773 350.177 320.71 350.114C320.423 349.825 319.984 349.647 319.648 349.876Z" fill="white"/>
<path d="M177.416 280.281C183.837 280.281 189.658 281.814 194.88 284.88C200.188 287.858 204.34 292.105 207.336 297.623C210.333 303.053 211.831 309.403 211.831 316.673C211.831 323.942 210.333 330.336 207.336 335.854C204.34 341.284 200.188 345.532 194.88 348.598C189.658 351.576 183.837 353.064 177.416 353.064C170.381 353.064 164.589 351.384 160.041 348.024C158.426 346.831 155.714 347.876 155.714 349.883C155.714 351.06 154.76 352.013 153.584 352.013H146.147C140.864 352.013 136.58 347.73 136.58 342.447V264.548C136.58 259.016 141.065 254.531 146.597 254.531H147.177C152.388 254.531 156.613 258.756 156.613 263.967V265.604C156.613 273.713 169.307 280.281 177.416 280.281ZM173.949 336.248C179.085 336.248 183.28 334.496 186.533 330.993C189.872 327.402 191.541 322.629 191.541 316.673C191.541 310.717 189.872 305.988 186.533 302.484C183.28 298.893 179.085 297.098 173.949 297.098C168.812 297.098 164.575 298.893 161.236 302.484C157.983 305.988 156.356 310.717 156.356 316.673C156.356 322.629 157.983 327.402 161.236 330.993C164.575 334.496 168.812 336.248 173.949 336.248Z" fill="white"/>
<path d="M284.825 281.332C290.357 281.332 294.841 285.817 294.841 291.349V340.189C294.841 353.152 291.631 362.786 285.21 369.092C278.79 375.399 269.458 378.552 257.216 378.552C250.71 378.552 244.546 377.72 238.725 376.056C235.488 375.117 232.538 373.941 229.874 372.528C226.411 370.691 225.57 366.322 227.436 362.874C229.882 358.355 235.956 357.228 240.731 359.128C241.413 359.4 242.114 359.656 242.834 359.896C247.029 361.297 251.266 361.998 255.547 361.998C262.224 361.998 267.104 360.422 270.186 357.269C273.268 354.115 274.809 349.298 274.809 342.817C274.809 341.953 273.739 341.506 273.082 342.066C270.908 343.92 268.445 345.396 265.691 346.496C262.181 347.897 258.415 348.598 254.391 348.598C245.316 348.598 238.125 345.97 232.817 340.715C227.51 335.372 224.856 327.402 224.856 316.804V291.349C224.856 285.817 229.34 281.332 234.872 281.332C240.404 281.332 244.888 285.817 244.888 291.349V313.783C244.888 325.256 249.554 330.993 258.885 330.993C263.68 330.993 267.532 329.417 270.443 326.263C273.353 323.023 274.809 318.249 274.809 311.943V291.349C274.809 285.817 279.293 281.332 284.825 281.332Z" fill="white"/>
</svg>
