<svg width="518" height="521" viewBox="0 0 518 521" fill="none" xmlns="http://www.w3.org/2000/svg">
<path d="M57.66 218H254.823C253.794 219.091 253.321 220.51 253.321 221.942C253.321 223.425 253.828 224.894 254.934 226C256.04 227.105 257.508 227.613 258.991 227.613C260.474 227.613 261.943 227.105 263.048 226C264.154 224.894 264.661 223.425 264.661 221.942C264.661 220.51 264.188 219.091 263.16 218H460.322C469.342 218 476.591 225.214 477.082 233.773V497.175H41.9688V233.691C41.9688 225.145 48.6919 218 57.66 218Z" fill="black" stroke="black" stroke-width="6"/>
<path d="M286.243 506.58C286.243 508.182 285.175 509.25 283.573 509.25H234.441C232.839 509.25 231.771 508.182 231.771 506.58H0C0 514.591 5.87439 520.999 12.8168 520.999H504.663C511.606 520.999 517.48 514.591 517.48 506.58H286.243Z" fill="black"/>
<rect x="317.2" y="1.2" width="187.562" height="332.6" rx="28.8" fill="white" stroke="black" stroke-width="2.4"/>
<rect x="358.359" y="23.1035" width="109.1" height="10.2682" rx="5.1341" fill="black"/>
<path d="M374.166 206.773C365.415 201.02 359.763 191.605 358.808 181.19L357.214 163.803C356.258 153.38 360.111 143.09 367.682 135.846L380.273 123.8C387.847 116.553 398.318 113.145 408.717 114.542L426.027 116.867C436.415 118.263 445.602 124.301 450.989 133.275L459.987 148.264C465.375 157.237 466.376 168.17 462.708 177.97L456.596 194.298C452.925 204.108 444.975 211.714 434.999 214.96L418.415 220.356C408.444 223.601 397.535 222.137 388.776 216.379L374.166 206.773Z" fill="#DD3E3E"/>
<path d="M394.43 146.217C395.782 146.217 397.008 146.539 398.108 147.183C399.226 147.809 400.1 148.702 400.731 149.861C401.362 151.002 401.677 152.337 401.677 153.864C401.677 155.392 401.362 156.736 400.731 157.895C400.1 159.037 399.226 159.929 398.108 160.573C397.008 161.199 395.782 161.512 394.43 161.512C392.723 161.512 390.05 162.892 390.05 164.597V164.74C390.05 165.794 389.194 166.647 388.139 166.647H387.94C386.776 166.647 385.831 165.705 385.831 164.543V148.448C385.831 147.338 386.733 146.438 387.846 146.438H389.412C389.659 146.438 389.86 146.638 389.86 146.885C389.86 147.307 390.431 147.527 390.771 147.276C391.729 146.57 392.949 146.217 394.43 146.217ZM393.7 157.978C394.782 157.978 395.665 157.61 396.35 156.874C397.053 156.119 397.405 155.116 397.405 153.864C397.405 152.613 397.053 151.619 396.35 150.883C395.665 150.128 394.782 149.751 393.7 149.751C392.619 149.751 391.726 150.128 391.023 150.883C390.338 151.619 389.996 152.613 389.996 153.864C389.996 155.116 390.338 156.119 391.023 156.874C391.726 157.61 392.619 157.978 393.7 157.978Z" fill="white"/>
<path d="M417.156 146.438C418.321 146.438 419.266 147.38 419.266 148.543V159.281C419.266 160.391 418.364 161.291 417.251 161.291H415.685C415.437 161.291 415.237 161.091 415.237 160.844C415.237 160.422 414.666 160.203 414.326 160.454C413.372 161.159 412.161 161.512 410.694 161.512C409.324 161.512 408.08 161.199 406.962 160.573C405.862 159.948 404.997 159.055 404.366 157.895C403.735 156.736 403.42 155.392 403.42 153.864C403.42 152.337 403.735 150.993 404.366 149.834C404.997 148.674 405.862 147.781 406.962 147.156C408.08 146.53 409.324 146.217 410.694 146.217C412.095 146.217 413.265 146.557 414.204 147.239C414.526 147.472 415.047 147.263 415.047 146.867C415.047 146.63 415.24 146.438 415.477 146.438H417.156ZM411.424 157.978C412.487 157.978 413.371 157.61 414.074 156.874C414.777 156.119 415.128 155.116 415.128 153.864C415.128 152.613 414.777 151.619 414.074 150.883C413.371 150.128 412.487 149.751 411.424 149.751C410.342 149.751 409.45 150.128 408.747 150.883C408.044 151.619 407.692 152.613 407.692 153.864C407.692 155.116 408.044 156.119 408.747 156.874C409.45 157.61 410.342 157.978 411.424 157.978Z" fill="white"/>
<path d="M428.066 161.512C426.858 161.512 425.677 161.365 424.523 161.07C423.972 160.921 423.475 160.755 423.031 160.572C422.267 160.257 422.015 159.361 422.356 158.611C422.785 157.668 423.965 157.327 424.941 157.676C425.129 157.744 425.323 157.807 425.524 157.868C426.443 158.125 427.345 158.254 428.228 158.254C430.013 158.254 430.905 157.803 430.905 156.901C430.905 156.478 430.662 156.174 430.175 155.99C429.688 155.806 428.94 155.65 427.93 155.521C426.741 155.337 425.758 155.125 424.983 154.886C424.208 154.647 423.532 154.223 422.955 153.616C422.396 153.009 422.117 152.144 422.117 151.021C422.117 150.082 422.378 149.254 422.901 148.536C423.442 147.8 424.217 147.229 425.226 146.824C426.254 146.419 427.462 146.217 428.85 146.217C429.877 146.217 430.896 146.336 431.906 146.576C432.325 146.666 432.715 146.771 433.074 146.892C433.891 147.167 434.177 148.104 433.818 148.886C433.401 149.794 432.292 150.128 431.334 149.836C430.544 149.595 429.716 149.475 428.85 149.475C427.948 149.475 427.272 149.604 426.822 149.861C426.371 150.119 426.146 150.45 426.146 150.855C426.146 151.315 426.389 151.637 426.876 151.821C427.363 152.005 428.138 152.18 429.201 152.346C430.391 152.548 431.365 152.769 432.122 153.009C432.879 153.229 433.537 153.644 434.096 154.251C434.655 154.858 434.934 155.705 434.934 156.791C434.934 157.711 434.664 158.53 434.123 159.248C433.582 159.966 432.789 160.527 431.743 160.932C430.716 161.319 429.49 161.512 428.066 161.512Z" fill="white"/>
<path d="M426.384 186.235C426.435 186.28 426.485 186.325 426.535 186.371C426.551 186.386 426.568 186.402 426.585 186.417C427.023 186.84 427.309 187.443 427.438 188.036C427.445 188.067 427.445 188.067 427.451 188.098C427.491 188.292 427.497 188.481 427.496 188.678C427.496 188.711 427.496 188.744 427.496 188.777C427.492 189.033 427.472 189.274 427.413 189.522C427.409 189.539 427.405 189.556 427.401 189.574C427.293 190.04 427.083 190.484 426.786 190.854C426.77 190.874 426.77 190.874 426.753 190.894C426.253 191.508 425.481 191.903 424.707 191.999C424.302 192.032 423.895 192.025 423.499 191.929C423.482 191.925 423.465 191.921 423.447 191.917C422.671 191.73 421.992 191.248 421.564 190.562C421.119 189.811 420.917 188.86 421.12 187.996C421.134 187.941 421.15 187.886 421.166 187.831C421.171 187.813 421.177 187.795 421.182 187.776C421.431 186.93 422.008 186.239 422.761 185.814C423.939 185.188 425.376 185.367 426.384 186.235ZM422.16 187.771C422.114 187.806 422.077 187.858 422.081 187.916C422.084 187.961 422.106 188.005 422.137 188.037C422.157 188.058 422.176 188.072 422.202 188.082C422.243 188.099 422.288 188.099 422.332 188.098C422.337 188.098 422.342 188.097 422.347 188.097C422.391 188.097 422.391 188.097 422.435 188.096C422.466 188.096 422.496 188.095 422.527 188.094C422.558 188.093 422.588 188.093 422.62 188.092C422.674 188.092 422.728 188.09 422.781 188.089C422.817 188.088 422.847 188.117 422.846 188.153C422.845 188.356 422.844 188.56 422.843 188.763C422.843 188.868 422.842 188.973 422.841 189.077C422.84 189.178 422.84 189.279 422.84 189.38C422.84 189.419 422.839 189.457 422.839 189.496C422.838 189.55 422.838 189.604 422.838 189.658C422.838 189.688 422.838 189.719 422.838 189.751C422.843 189.793 422.849 189.824 422.862 189.851C422.89 189.911 422.95 189.959 423.017 189.954C423.063 189.951 423.112 189.932 423.146 189.9C423.151 189.895 423.155 189.891 423.159 189.886C423.197 189.838 423.204 189.773 423.205 189.713C423.205 189.694 423.205 189.672 423.204 189.634C423.204 189.618 423.204 189.601 423.204 189.584C423.204 189.528 423.203 189.473 423.203 189.418C423.203 189.38 423.203 189.341 423.203 189.303C423.203 189.202 423.202 189.102 423.202 189.001C423.201 188.898 423.201 188.795 423.201 188.692C423.2 188.51 423.199 188.328 423.198 188.146C423.198 188.114 423.225 188.088 423.256 188.089C423.344 188.092 423.431 188.094 423.518 188.095C423.548 188.096 423.579 188.098 423.61 188.099C423.653 188.099 423.653 188.099 423.698 188.1C423.738 188.101 423.738 188.101 423.779 188.102C423.855 188.093 423.855 188.093 423.91 188.028C423.923 188.009 423.932 187.996 423.939 187.985C423.976 187.923 423.951 187.835 423.898 187.786C423.843 187.735 423.763 187.717 423.687 187.718C423.675 187.718 423.661 187.718 423.643 187.718C423.612 187.718 423.581 187.718 423.548 187.717C423.514 187.717 423.481 187.718 423.447 187.718C423.412 187.718 423.377 187.717 423.342 187.717C423.269 187.717 423.196 187.717 423.122 187.717C423.029 187.718 422.935 187.717 422.842 187.716C422.77 187.716 422.698 187.716 422.625 187.716C422.591 187.716 422.556 187.716 422.522 187.716C422.474 187.715 422.425 187.716 422.377 187.716C422.366 187.716 422.357 187.716 422.351 187.716C422.313 187.716 422.275 187.717 422.239 187.729C422.209 187.739 422.184 187.753 422.16 187.771ZM424.381 187.761C424.325 187.799 424.287 187.864 424.279 187.931C424.272 187.989 424.273 188.049 424.273 188.11C424.273 188.128 424.273 188.145 424.273 188.163C424.273 188.221 424.273 188.279 424.273 188.337C424.273 188.377 424.273 188.418 424.272 188.458C424.272 188.542 424.272 188.627 424.272 188.711C424.272 188.819 424.272 188.928 424.272 189.036C424.271 189.119 424.271 189.202 424.271 189.285C424.271 189.325 424.271 189.365 424.271 189.405C424.271 189.461 424.271 189.517 424.271 189.572C424.271 189.604 424.271 189.636 424.271 189.669C424.275 189.732 424.284 189.779 424.305 189.831C424.318 189.864 424.343 189.899 424.372 189.921C424.421 189.959 424.487 189.954 424.542 189.924C424.548 189.921 424.554 189.917 424.56 189.913C424.61 189.881 424.64 189.826 424.649 189.768C424.656 189.721 424.658 189.673 424.658 189.623C424.659 189.597 424.659 189.572 424.66 189.545C424.66 189.518 424.661 189.49 424.661 189.462C424.662 189.42 424.662 189.42 424.663 189.376C424.664 189.286 424.666 189.196 424.667 189.106C424.668 189.044 424.67 188.983 424.671 188.922C424.672 188.843 424.673 188.764 424.675 188.685C424.676 188.614 424.766 188.585 424.809 188.641C424.821 188.656 424.833 188.672 424.846 188.688C424.927 188.794 425.006 188.901 425.084 189.009C425.11 189.045 425.135 189.085 425.173 189.108C425.229 189.142 425.304 189.129 425.362 189.1C425.398 189.083 425.423 189.056 425.462 189.006C425.481 188.983 425.5 188.96 425.519 188.937C425.54 188.91 425.561 188.883 425.581 188.856C425.606 188.824 425.631 188.792 425.656 188.76C425.705 188.697 425.754 188.633 425.803 188.569C425.826 188.539 425.839 188.521 425.849 188.509C425.86 188.495 425.883 188.504 425.883 188.522C425.885 188.697 425.887 188.871 425.889 189.046C425.89 189.111 425.891 189.176 425.891 189.241C425.892 189.335 425.893 189.429 425.895 189.522C425.895 189.551 425.895 189.58 425.895 189.611C425.896 189.638 425.896 189.665 425.897 189.693C425.897 189.7 425.897 189.707 425.897 189.715C425.897 189.748 425.899 189.782 425.909 189.815C425.912 189.826 425.917 189.837 425.922 189.847C425.952 189.909 426.012 189.96 426.08 189.954C426.125 189.95 426.172 189.932 426.205 189.902C426.211 189.897 426.216 189.892 426.22 189.886C426.258 189.838 426.263 189.773 426.265 189.713C426.266 189.69 426.266 189.665 426.265 189.617C426.265 189.599 426.265 189.58 426.266 189.561C426.266 189.499 426.266 189.438 426.265 189.377C426.266 189.334 426.266 189.292 426.266 189.249C426.266 189.159 426.266 189.07 426.265 188.981C426.265 188.866 426.265 188.752 426.266 188.637C426.266 188.549 426.266 188.461 426.266 188.373C426.265 188.33 426.266 188.288 426.266 188.246C426.266 188.187 426.266 188.128 426.265 188.069C426.265 188.035 426.265 188.002 426.265 187.967C426.263 187.933 426.26 187.905 426.254 187.88C426.237 187.809 426.185 187.744 426.113 187.734C426.072 187.728 426.026 187.738 425.99 187.758C425.952 187.778 425.928 187.804 425.892 187.849C425.875 187.87 425.858 187.89 425.84 187.912C425.751 188.025 425.663 188.139 425.576 188.253C425.57 188.26 425.565 188.267 425.56 188.273C425.413 188.464 425.134 188.476 424.984 188.287C424.969 188.268 424.953 188.249 424.937 188.229C424.838 188.105 424.74 187.981 424.644 187.854C424.631 187.838 424.618 187.824 424.605 187.811C424.544 187.75 424.452 187.713 424.381 187.761Z" fill="white"/>
<path d="M394.43 173.136C395.782 173.136 397.008 173.458 398.108 174.102C399.226 174.728 400.1 175.62 400.731 176.78C401.362 177.921 401.677 179.256 401.677 180.783C401.677 182.311 401.362 183.655 400.731 184.814C400.1 185.955 399.226 186.848 398.108 187.492C397.008 188.118 395.782 188.431 394.43 188.431C392.949 188.431 391.729 188.078 390.771 187.372C390.431 187.121 389.86 187.341 389.86 187.762C389.86 188.01 389.659 188.21 389.412 188.21H387.846C386.733 188.21 385.831 187.31 385.831 186.2V169.829C385.831 168.667 386.776 167.724 387.94 167.724H388.063C389.16 167.724 390.05 168.612 390.05 169.707V170.051C390.05 171.755 392.723 173.136 394.43 173.136ZM393.7 184.897C394.782 184.897 395.665 184.529 396.35 183.793C397.053 183.038 397.405 182.035 397.405 180.783C397.405 179.532 397.053 178.538 396.35 177.801C395.665 177.047 394.782 176.669 393.7 176.669C392.619 176.669 391.726 177.047 391.023 177.801C390.338 178.538 389.996 179.532 389.996 180.783C389.996 182.035 390.338 183.038 391.023 183.793C391.726 184.529 392.619 184.897 393.7 184.897Z" fill="white"/>
<path d="M417.048 173.356C418.213 173.356 419.158 174.299 419.158 175.461V185.725C419.158 188.449 418.481 190.474 417.129 191.799C415.777 193.124 413.812 193.787 411.234 193.787C409.864 193.787 408.566 193.612 407.341 193.262C406.659 193.065 406.038 192.818 405.477 192.521C404.748 192.135 404.571 191.217 404.963 190.492C405.478 189.543 406.758 189.306 407.763 189.705C407.907 189.762 408.054 189.816 408.206 189.867C409.089 190.161 409.982 190.308 410.883 190.308C412.289 190.308 413.317 189.977 413.966 189.314C414.615 188.652 414.939 187.639 414.939 186.277C414.939 186.096 414.714 186.002 414.575 186.12C414.118 186.509 413.599 186.819 413.019 187.05C412.28 187.345 411.487 187.492 410.64 187.492C408.729 187.492 407.214 186.94 406.097 185.836C404.979 184.713 404.42 183.038 404.42 180.811V175.461C404.42 174.299 405.364 173.356 406.529 173.356C407.694 173.356 408.638 174.299 408.638 175.461V180.176C408.638 182.587 409.621 183.793 411.586 183.793C412.596 183.793 413.407 183.461 414.02 182.799C414.633 182.118 414.939 181.115 414.939 179.789V175.461C414.939 174.299 415.883 173.356 417.048 173.356Z" fill="white"/>
</svg>
